<svg width="800" height="800" viewBox="0 0 800 800" fill="none" xmlns="http://www.w3.org/2000/svg">
<path d="M225.501 384.35C225.501 394.2 226.501 402.2 228.401 408.1C230.501 413.95 233.201 420.35 236.901 427.3C238.081 429.136 238.722 431.267 238.751 433.45C238.751 436.1 237.151 438.8 233.751 441.45L216.951 452.65C214.934 454.106 212.535 454.94 210.051 455.05C207.351 455.05 204.701 453.75 202.051 451.35C198.457 447.483 195.242 443.281 192.451 438.8C189.493 433.67 186.757 428.415 184.251 423.05C163.451 447.6 137.401 459.9 106.001 459.9C83.6506 459.9 65.8006 453.45 52.8006 440.65C39.7506 427.85 33.1006 410.75 33.1006 389.4C33.1006 366.7 41.1006 348.3 57.3006 334.4C73.5506 320.5 95.1006 313.6 122.501 313.6C131.501 313.6 140.851 314.4 150.701 315.7C160.551 317.05 170.701 319.2 181.301 321.6V302.1C181.301 281.8 177.051 267.65 168.801 259.4C160.301 251.1 145.901 247.1 125.401 247.1C116.101 247.1 106.551 248.2 96.7006 250.6C86.9142 252.929 77.3065 255.953 67.9506 259.65C64.93 261.018 61.8234 262.187 58.6506 263.15C57.2757 263.604 55.8465 263.873 54.4006 263.95C50.6506 263.95 48.8006 261.25 48.8006 255.65V242.55C48.8006 238.3 49.3006 235.05 50.6506 233.25C52.6654 230.797 55.2367 228.86 58.1506 227.6C67.4006 222.8 78.6006 218.8 91.6506 215.6C104.651 212.1 118.501 210.55 133.151 210.55C164.801 210.55 187.951 217.75 202.851 232.15C217.501 246.55 224.951 268.45 224.951 297.85V384.35H225.451H225.501ZM117.451 424.9C126.201 424.9 135.251 423.3 144.851 420.1C154.451 416.9 162.951 411 170.101 403C174.388 398.088 177.485 392.254 179.151 385.95C180.751 379.5 181.851 371.8 181.851 362.7V351.5C173.775 349.542 165.595 348.039 157.351 347C149.06 345.928 140.71 345.376 132.351 345.35C114.501 345.35 101.501 348.85 92.7006 356.05C83.9006 363.25 79.7006 373.4 79.7006 386.75C79.7006 399.25 82.8506 408.6 89.5006 415.05C95.9006 421.7 105.201 424.9 117.451 424.9ZM331.101 453.75C326.301 453.75 323.101 452.95 321.001 451.05C318.851 449.45 317.001 445.75 315.401 440.65L252.901 234.3C251.685 230.839 250.879 227.248 250.501 223.6C250.501 219.35 252.601 216.95 256.851 216.95H282.951C287.951 216.95 291.451 217.75 293.301 219.6C295.451 221.2 297.051 224.95 298.651 230L343.351 406.75L384.851 230C386.151 224.7 387.751 221.2 389.901 219.6C393.095 217.645 396.813 216.72 400.551 216.95H421.851C426.851 216.95 430.351 217.75 432.451 219.6C434.601 221.2 436.451 224.95 437.551 230L479.551 408.9L525.551 230C526.406 226.129 528.249 222.546 530.901 219.6C534 217.64 537.641 216.712 541.301 216.95H566.051C570.301 216.95 572.701 219.1 572.701 223.6C572.701 224.95 572.401 226.3 572.201 227.9C571.769 230.169 571.133 232.395 570.301 234.55L506.151 440.9C504.601 446.25 502.701 449.75 500.601 451.35C497.581 453.281 494.029 454.209 490.451 454H467.601C462.551 454 459.101 453.2 456.951 451.35C454.801 449.45 452.951 446 451.901 440.65L410.651 268.5L369.651 440.45C368.351 445.8 366.751 449.25 364.651 451.1C362.501 453 358.751 453.8 354.001 453.8H331.101V453.75ZM673.001 460.95C659.193 460.968 645.431 459.357 632.001 456.15C618.701 452.95 608.351 449.45 601.401 445.45C597.151 443.05 594.251 440.4 593.151 437.95C592.137 435.597 591.61 433.062 591.601 430.5V416.9C591.601 411.3 593.701 408.6 597.701 408.6C599.334 408.604 600.955 408.874 602.501 409.4C604.101 409.95 606.501 411 609.151 412.1C618.151 416.1 628.051 419.3 638.401 421.45C649.051 423.55 659.401 424.65 670.051 424.65C686.851 424.65 699.851 421.7 708.901 415.85C713.248 413.218 716.82 409.481 719.253 405.019C721.686 400.557 722.893 395.53 722.751 390.45C722.84 387.02 722.25 383.606 721.015 380.405C719.779 377.204 717.922 374.28 715.551 371.8C710.801 366.7 701.751 362.15 688.701 357.9L650.101 345.9C630.701 339.75 616.301 330.65 607.551 318.65C598.985 307.562 594.311 293.961 594.251 279.95C594.251 268.75 596.651 258.85 601.401 250.3C606.201 241.8 612.601 234.3 620.601 228.4C628.601 222.3 637.601 217.75 648.251 214.55C658.901 211.35 670.051 210 681.751 210C687.651 210 693.751 210.25 699.601 211.05C705.701 211.85 711.301 212.95 716.901 214.05C722.201 215.35 727.301 216.65 732.051 218.3C736.851 219.9 740.551 221.5 743.251 223.1C746.389 224.678 749.126 226.953 751.251 229.75C752.962 232.353 753.786 235.44 753.601 238.55V251.1C753.601 256.7 751.501 259.65 747.501 259.65C743.959 259.246 740.529 258.159 737.401 256.45C721.322 249.323 703.886 245.774 686.301 246.05C671.151 246.05 659.151 248.45 650.901 253.55C642.651 258.55 638.401 266.35 638.401 277.3C638.401 284.75 641.051 291.15 646.401 296.25C651.701 301.3 661.551 306.35 675.651 310.9L713.451 322.9C732.601 329.05 746.451 337.6 754.701 348.55C762.951 359.5 766.901 372.05 766.901 385.95C766.901 397.45 764.551 407.8 760.001 416.9C755.291 426.032 748.675 434.046 740.601 440.4C732.351 447.05 722.501 451.9 711.051 455.35C699.051 459.1 686.551 460.95 673.001 460.95Z" fill="white"/>
<path fill-rule="evenodd" clip-rule="evenodd" d="M723.25 590.65C635.75 655.5 508.55 689.95 399.2 689.95C245.95 689.95 107.85 633.1 3.55042 538.6C-4.69958 531.1 2.75042 520.95 12.5504 526.85C125.4 592.5 264.55 632.3 408.55 632.3C505.6 632.3 612.3 612 710.5 570.35C725.15 563.7 737.65 579.95 723.25 590.65Z" fill="white"/>
<path fill-rule="evenodd" clip-rule="evenodd" d="M759.701 549C748.551 534.65 685.751 542.1 657.301 545.55C648.801 546.65 647.451 539.15 655.151 533.55C705.151 498.3 787.401 508.45 796.951 520.2C806.551 532.2 794.301 614.7 747.451 654.2C740.301 660.35 733.401 657.2 736.601 649.2C747.201 622.7 770.901 563.2 759.701 549.05V549Z" fill="white"/>
</svg>
