<svg width="389" height="407" viewBox="0 0 389 407" fill="none" xmlns="http://www.w3.org/2000/svg">
<path fill-rule="evenodd" clip-rule="evenodd" d="M204.425 268.494H261.405C265.364 268.494 268.601 271.768 268.601 275.783V309.453C275.464 311.145 281.559 315.095 285.907 320.668C290.256 326.24 292.605 333.113 292.578 340.181C292.578 357.627 278.61 371.779 261.405 371.779C244.181 371.779 230.214 357.627 230.214 340.181C230.214 325.252 240.463 312.727 254.209 309.434V283.072H204.443V369.337C204.449 370.59 204.131 371.824 203.522 372.919C202.913 374.014 202.033 374.934 200.965 375.59L151.201 405.949C150.071 406.639 148.772 407.002 147.449 406.995C146.126 406.989 144.83 406.613 143.708 405.912L52.577 348.821C51.5255 348.161 50.6594 347.244 50.0606 346.156C49.4618 345.069 49.15 343.846 49.1545 342.605V283.053L3.626 256.598C2.59063 255.998 1.7185 255.153 1.08626 254.137C0.454016 253.121 0.0810041 251.965 0 250.771V250.271V155.514C0 152.924 1.3505 150.519 3.552 149.224L49.1545 122.177V63.7913C49.1545 61.4048 50.3015 59.1848 52.207 57.8343L52.5955 57.5753L143.745 1.07629C144.875 0.372853 146.179 0 147.51 0C148.841 0 150.145 0.372853 151.275 1.07629L201.039 32.0638C202.091 32.7238 202.957 33.6409 203.556 34.7285C204.155 35.8161 204.467 37.0383 204.462 38.2798V122.103H275.798V86.6388C268.932 84.9457 262.835 80.9932 258.486 75.4166C254.138 69.84 251.791 62.9633 251.822 55.8918C251.822 38.4463 265.79 24.2938 282.995 24.2938C300.218 24.2938 314.167 38.4463 314.167 55.8918C314.167 70.8213 303.937 83.3458 290.191 86.6388V129.392C290.198 130.344 290.018 131.287 289.66 132.169C289.302 133.051 288.774 133.853 288.105 134.53C287.437 135.207 286.641 135.746 285.764 136.115C284.887 136.484 283.946 136.676 282.995 136.681H204.462V170.092H327.006C328.58 163.214 332.435 157.07 337.943 152.66C343.451 148.25 350.29 145.833 357.346 145.802C374.551 145.802 388.518 159.936 388.518 177.381C388.518 194.827 374.569 208.979 357.346 208.979C350.287 208.947 343.447 206.528 337.938 202.114C332.429 197.7 328.576 191.552 327.006 184.67H204.425V220.505H296.056L312.983 242.335C317.697 239.578 323.062 238.128 328.523 238.135C345.746 238.135 359.696 252.269 359.696 269.715C359.696 287.16 345.746 301.313 328.523 301.313C311.318 301.313 297.35 287.16 297.35 269.715C297.35 263.314 299.238 257.357 302.457 252.38L289.062 235.083H204.425V268.494ZM147.5 15.8393L109.705 39.2603V94.1683H95.312V48.1773L63.5475 67.8798V122.362L102.583 147.522L142.672 122.288V80.1823H157.065V126.358C157.065 128.874 155.77 131.224 153.661 132.556L110.315 159.806V198.305L136.623 216.971L128.372 228.922L102.36 210.459L74.0555 229.052L66.23 216.842L95.9225 197.324V160.509L56.203 134.868L14.393 159.658V190.664L50.875 168.668L58.238 181.192L14.393 207.629V246.053L54.464 269.326L96.459 244.018L103.804 256.543L63.5475 280.796V338.553L98.2535 360.291L142.006 333.91L149.369 346.453L112.055 368.949L147.538 391.167L190.05 365.212V258.282L102.027 311.802L94.6275 299.315L190.05 241.299V42.3498L147.5 15.8393ZM261.405 323.198C259.184 323.21 256.987 323.66 254.94 324.523C252.893 325.385 251.036 326.643 249.475 328.224C247.915 329.805 246.682 331.678 245.847 333.736C245.011 335.794 244.59 337.997 244.607 340.218C244.607 349.598 252.118 357.201 261.405 357.201C263.623 357.187 265.817 356.735 267.86 355.873C269.904 355.011 271.758 353.755 273.316 352.176C274.874 350.597 276.106 348.727 276.941 346.672C277.777 344.617 278.199 342.418 278.185 340.2C278.202 337.98 277.781 335.779 276.947 333.722C276.112 331.665 274.881 329.793 273.323 328.212C271.764 326.631 269.91 325.373 267.865 324.51C265.82 323.646 263.625 323.213 261.405 323.198ZM328.56 252.713C326.339 252.725 324.142 253.175 322.095 254.038C320.048 254.9 318.191 256.158 316.63 257.739C315.07 259.32 313.837 261.193 313.002 263.251C312.166 265.309 311.745 267.512 311.762 269.733C311.762 279.131 319.273 286.753 328.542 286.753C330.763 286.741 332.96 286.291 335.007 285.429C337.054 284.566 338.911 283.309 340.471 281.728C342.031 280.147 343.265 278.274 344.1 276.215C344.935 274.157 345.357 271.954 345.339 269.733C345.357 267.512 344.935 265.309 344.1 263.251C343.265 261.193 342.031 259.32 340.471 257.739C338.911 256.158 337.054 254.9 335.007 254.038C332.96 253.175 330.781 252.725 328.56 252.713ZM357.328 160.398C355.106 160.41 352.909 160.86 350.862 161.723C348.815 162.585 346.958 163.843 345.398 165.424C343.838 167.005 342.604 168.878 341.769 170.936C340.934 172.994 340.512 175.197 340.529 177.418C340.529 186.798 348.059 194.401 357.328 194.401C359.546 194.387 361.739 193.935 363.783 193.073C365.827 192.211 367.68 190.955 369.238 189.376C370.797 187.797 372.029 185.927 372.864 183.872C373.699 181.817 374.122 179.618 374.107 177.4C374.124 175.18 373.703 172.979 372.869 170.922C372.035 168.865 370.803 166.993 369.245 165.412C367.687 163.831 365.832 162.573 363.787 161.71C361.742 160.846 359.547 160.394 357.328 160.38V160.398ZM282.976 38.8533C280.756 38.8678 278.561 39.3197 276.516 40.1831C274.471 41.0466 272.617 42.3046 271.058 43.8853C269.5 45.466 268.269 47.3384 267.434 49.3954C266.6 51.4524 266.179 53.6536 266.196 55.8733C266.196 65.2713 273.707 72.8933 282.976 72.8933C285.197 72.8812 287.394 72.4311 289.441 71.5687C291.488 70.7064 293.345 69.4487 294.906 67.8678C296.466 66.2868 297.699 64.4136 298.534 62.3554C299.37 60.2972 299.791 58.0945 299.774 55.8733C299.791 53.6521 299.37 51.4493 298.534 49.3911C297.699 47.333 296.466 45.4598 294.906 43.8788C293.345 42.2979 291.488 41.0402 289.441 40.1779C287.394 39.3155 285.197 38.8654 282.976 38.8533Z" fill="white"/>
</svg>
