<svg width="666" height="666" viewBox="0 0 666 666" fill="none" xmlns="http://www.w3.org/2000/svg">
<g clip-path="url(#clip0_4_21)">
<path fill-rule="evenodd" clip-rule="evenodd" d="M450.462 0C470.248 0 487.786 15.2902 494.085 36.8797C500.385 58.4692 537.237 192.002 537.237 192.002V457.348H403.676L406.395 0H450.462Z" fill="white" fill-opacity="0.5"/>
<path fill-rule="evenodd" clip-rule="evenodd" d="M646.493 207.292C646.493 197.857 638.861 190.642 629.843 190.642H551.171C524.575 190.664 499.075 201.241 480.271 220.05C461.467 238.859 450.898 264.362 450.883 290.959V457.348H546.232C572.818 457.318 598.307 446.742 617.104 427.94C635.901 409.137 646.471 383.646 646.493 357.059V207.292Z" fill="white"/>
<path fill-rule="evenodd" clip-rule="evenodd" d="M450.478 0.000697385C446.867 -0.0251382 443.286 0.667102 439.945 2.03718C436.604 3.40726 433.568 5.42784 431.014 7.98149C428.46 10.5351 426.44 13.5709 425.07 16.9123C423.7 20.2537 423.008 23.8341 423.033 27.4454L420.342 532.44C420.334 567.86 406.26 601.828 381.214 626.873C356.169 651.919 322.201 665.993 286.781 666.001H44.4123C41.7589 666.016 39.1406 665.394 36.7777 664.186C34.4149 662.979 32.3767 661.221 30.8347 659.062C29.2926 656.902 28.2918 654.404 27.9165 651.777C27.5412 649.151 27.8024 646.472 28.6781 643.967L222.928 89.4944C232.079 63.3865 249.102 40.7593 271.651 24.731C294.2 8.70271 321.165 0.0623693 348.83 0.000697385H450.922H450.478Z" fill="white"/>
</g>
<defs>
<clipPath id="clip0_4_21">
<rect width="666" height="666" fill="white"/>
</clipPath>
</defs>
</svg>
