<svg width="581" height="666" viewBox="0 0 581 666" fill="none" xmlns="http://www.w3.org/2000/svg">
<path fill-rule="evenodd" clip-rule="evenodd" d="M290.235 560.994C276.306 560.994 262.948 566.527 253.1 576.376C243.251 586.225 237.718 599.583 237.718 613.511C237.718 627.439 243.251 640.797 253.1 650.646C262.948 660.495 276.306 666.028 290.235 666.028C304.163 666.028 317.521 660.495 327.37 650.646C337.219 640.797 342.752 627.439 342.752 613.511C342.752 599.583 337.219 586.225 327.37 576.376C317.521 566.527 304.163 560.994 290.235 560.994ZM290.235 638.861C285.132 638.86 280.144 637.342 275.906 634.499C271.668 631.656 268.372 627.617 266.436 622.895C264.5 618.174 264.012 612.983 265.034 607.984C266.056 602.984 268.542 598.401 272.176 594.819C275.81 591.236 280.427 588.815 285.441 587.863C290.454 586.912 295.638 587.473 300.331 589.475C305.025 591.478 309.017 594.831 311.8 599.109C314.583 603.386 316.03 608.395 315.959 613.497C315.959 616.858 315.291 620.186 313.994 623.287C312.697 626.388 310.797 629.201 308.403 631.561C306.009 633.921 303.171 635.781 300.052 637.034C296.933 638.288 293.596 638.908 290.235 638.861Z" fill="white"/>
<path fill-rule="evenodd" clip-rule="evenodd" d="M559.202 392.495C565.779 393.55 571.745 396.935 575.991 402.041C579.779 407.604 581.366 414.375 580.443 421.041C579.52 427.707 576.153 433.793 570.996 438.116L342.336 606.892C341.177 597.734 337.625 589.044 332.037 581.697C326.449 574.35 319.023 568.607 310.507 565.045L540.277 396.325C545.915 392.803 552.638 391.442 559.202 392.495Z" fill="white"/>
<path fill-rule="evenodd" clip-rule="evenodd" d="M238.282 606.115L10.2606 437.784C4.94447 433.674 1.39413 427.693 0.332134 421.058C-0.729864 414.423 0.776289 407.633 4.54405 402.069C8.75358 396.893 14.7222 393.449 21.3101 392.395C27.898 391.34 34.6435 392.749 40.2583 396.353L270.028 565.073C261.636 568.58 254.299 574.206 248.734 581.401C243.169 588.595 239.568 597.111 238.282 606.115Z" fill="white"/>
<path fill-rule="evenodd" clip-rule="evenodd" d="M75.9899 124.182C68.9168 124.088 62.1597 121.237 57.1578 116.235C52.1559 111.233 49.3046 104.476 49.2112 97.403V30.248C48.7706 26.4459 49.1393 22.5935 50.293 18.9439C51.4467 15.2943 53.3594 11.93 55.9054 9.07191C58.4514 6.21385 61.5732 3.92666 65.0658 2.36053C68.5583 0.794403 72.3427 -0.0152435 76.1703 -0.0152435C79.9979 -0.0152435 83.7822 0.794403 87.2748 2.36053C90.7674 3.92666 93.8891 6.21385 96.4352 9.07191C98.9812 11.93 100.894 15.2943 102.048 18.9439C103.201 22.5935 103.57 26.4459 103.129 30.248V97.403C103.035 104.538 100.133 111.349 95.054 116.361C89.9746 121.373 83.1257 124.182 75.9899 124.182ZM75.2684 361.694C82.4663 361.694 89.3693 358.835 94.4589 353.745C99.5486 348.655 102.408 341.752 102.408 334.555C102.408 327.357 99.5486 320.454 94.4589 315.364C89.3693 310.274 82.4663 307.415 75.2684 307.415C68.0706 307.415 61.1675 310.274 56.0779 315.364C50.9882 320.454 48.1289 327.357 48.1289 334.555C48.1289 341.752 50.9882 348.655 56.0779 353.745C61.1675 358.835 68.0706 361.694 75.2684 361.694ZM75.2684 282.773C78.8324 282.773 82.3615 282.071 85.6542 280.707C88.947 279.343 91.9388 277.344 94.4589 274.824C96.9791 272.304 98.9781 269.312 100.342 266.019C101.706 262.727 102.408 259.198 102.408 255.634C102.408 252.07 101.706 248.54 100.342 245.248C98.9781 241.955 96.9791 238.963 94.4589 236.443C91.9388 233.923 88.947 231.924 85.6542 230.56C82.3615 229.196 78.8324 228.494 75.2684 228.494C68.0706 228.494 61.1675 231.353 56.0779 236.443C50.9882 241.533 48.1289 248.436 48.1289 255.634C48.1289 262.831 50.9882 269.734 56.0779 274.824C61.1675 279.914 68.0706 282.773 75.2684 282.773ZM75.2684 203.464C82.4663 203.464 89.3693 200.604 94.4589 195.515C99.5486 190.425 102.408 183.522 102.408 176.324C102.408 169.126 99.5486 162.223 94.4589 157.134C89.3693 152.044 82.4663 149.185 75.2684 149.185C68.0706 149.185 61.1675 152.044 56.0779 157.134C50.9882 162.223 48.1289 169.126 48.1289 176.324C48.1289 183.522 50.9882 190.425 56.0779 195.515C61.1675 200.604 68.0706 203.464 75.2684 203.464Z" fill="white"/>
<path fill-rule="evenodd" clip-rule="evenodd" d="M504.599 202.769C497.459 202.674 490.644 199.769 485.632 194.684C480.619 189.599 477.812 182.743 477.82 175.602V108.447C477.82 101.345 480.642 94.5335 485.664 89.5116C490.686 84.4896 497.497 81.6682 504.599 81.6682C511.701 81.6682 518.513 84.4896 523.535 89.5116C528.557 94.5335 531.378 101.345 531.378 108.447V175.602C531.433 179.152 530.781 182.678 529.46 185.973C528.138 189.269 526.174 192.269 523.682 194.797C521.189 197.326 518.218 199.333 514.942 200.702C511.666 202.071 508.15 202.773 504.599 202.769ZM505.293 362.054C508.857 362.054 512.386 361.352 515.679 359.988C518.971 358.624 521.963 356.625 524.483 354.105C527.004 351.585 529.003 348.593 530.366 345.301C531.73 342.008 532.432 338.479 532.432 334.915C532.432 331.351 531.73 327.822 530.366 324.529C529.003 321.236 527.004 318.244 524.483 315.724C521.963 313.204 518.971 311.205 515.679 309.841C512.386 308.477 508.857 307.775 505.293 307.775C498.095 307.775 491.192 310.635 486.102 315.724C481.013 320.814 478.153 327.717 478.153 334.915C478.153 342.113 481.013 349.016 486.102 354.105C491.192 359.195 498.095 362.054 505.293 362.054ZM505.293 281.69C512.491 281.69 519.394 278.831 524.483 273.741C529.573 268.652 532.432 261.749 532.432 254.551C532.432 247.353 529.573 240.45 524.483 235.36C519.394 230.271 512.491 227.411 505.293 227.411C498.095 227.411 491.192 230.271 486.102 235.36C481.013 240.45 478.153 247.353 478.153 254.551C478.153 261.749 481.013 268.652 486.102 273.741C491.192 278.831 498.095 281.69 505.293 281.69ZM505.293 57.387C508.857 57.387 512.386 56.685 515.679 55.3211C518.971 53.9572 521.963 51.9581 524.483 49.438C527.004 46.9179 529.003 43.926 530.366 40.6333C531.73 37.3406 532.432 33.8115 532.432 30.2475C532.432 26.6835 531.73 23.1544 530.366 19.8617C529.003 16.5689 527.004 13.5771 524.483 11.057C521.963 8.53683 518.971 6.53775 515.679 5.17386C512.386 3.80997 508.857 3.10799 505.293 3.10799C498.095 3.10799 491.192 5.96732 486.102 11.057C481.013 16.1466 478.153 23.0496 478.153 30.2475C478.153 37.4453 481.013 44.3484 486.102 49.438C491.192 54.5277 498.095 57.387 505.293 57.387Z" fill="white"/>
<path fill-rule="evenodd" clip-rule="evenodd" d="M290.277 441.697C283.204 441.604 276.447 438.753 271.445 433.751C266.443 428.749 263.592 421.992 263.498 414.919V346.681C264.265 340.069 267.435 333.968 272.405 329.54C277.376 325.112 283.801 322.666 290.458 322.666C297.114 322.666 303.539 325.112 308.51 329.54C313.481 333.968 316.65 340.069 317.417 346.681V414.197C317.472 417.793 316.81 421.365 315.471 424.703C314.131 428.04 312.14 431.078 309.613 433.638C307.087 436.198 304.076 438.229 300.756 439.613C297.436 440.997 293.874 441.705 290.277 441.697ZM290.277 520.646C297.475 520.646 304.378 517.787 309.468 512.697C314.557 507.608 317.417 500.705 317.417 493.507C317.417 486.309 314.557 479.406 309.468 474.316C304.378 469.227 297.475 466.367 290.277 466.367C283.079 466.367 276.176 469.227 271.087 474.316C265.997 479.406 263.138 486.309 263.138 493.507C263.138 500.705 265.997 507.608 271.087 512.697C276.176 517.787 283.079 520.646 290.277 520.646ZM290.277 295.261C297.475 295.261 304.378 292.401 309.468 287.312C314.557 282.222 317.417 275.319 317.417 268.121C317.417 260.923 314.557 254.02 309.468 248.931C304.378 243.841 297.475 240.982 290.277 240.982C283.079 240.982 276.176 243.841 271.087 248.931C265.997 254.02 263.138 260.923 263.138 268.121C263.138 275.319 265.997 282.222 271.087 287.312C276.176 292.401 283.079 295.261 290.277 295.261ZM290.277 215.979C297.475 215.979 304.378 213.12 309.468 208.03C314.557 202.94 317.417 196.037 317.417 188.839C317.417 181.642 314.557 174.739 309.468 169.649C304.378 164.559 297.475 161.7 290.277 161.7C283.079 161.7 276.176 164.559 271.087 169.649C265.997 174.739 263.138 181.642 263.138 188.839C263.138 196.037 265.997 202.94 271.087 208.03C276.176 213.12 283.079 215.979 290.277 215.979Z" fill="white"/>
<path fill-rule="evenodd" clip-rule="evenodd" d="M397.422 282.411C390.349 282.318 383.592 279.466 378.59 274.464C373.588 269.462 370.737 262.705 370.643 255.632V188.477C369.958 182.739 371.125 176.932 373.972 171.904C376.82 166.875 381.2 162.888 386.473 160.524C391.746 158.16 397.637 157.543 403.286 158.763C408.934 159.982 414.046 162.975 417.874 167.304C420.417 170.163 422.327 173.527 423.48 177.176C424.632 180.825 425.001 184.676 424.562 188.477V255.632C424.467 262.767 421.566 269.578 416.486 274.59C411.407 279.602 404.558 282.412 397.422 282.411ZM397.783 136.335C401.347 136.335 404.876 135.633 408.169 134.269C411.461 132.905 414.453 130.906 416.973 128.386C419.493 125.866 421.493 122.874 422.856 119.581C424.22 116.289 424.922 112.759 424.922 109.195C424.922 105.631 424.22 102.102 422.856 98.8096C421.493 95.5169 419.493 92.525 416.973 90.0049C414.453 87.4848 411.461 85.4857 408.169 84.1218C404.876 82.7579 401.347 82.0559 397.783 82.0559C390.585 82.0559 383.682 84.9153 378.592 90.0049C373.503 95.0945 370.643 101.998 370.643 109.195C370.643 116.393 373.503 123.296 378.592 128.386C383.682 133.476 390.585 136.335 397.783 136.335ZM397.783 439.92C404.981 439.92 411.884 437.061 416.973 431.971C422.063 426.881 424.922 419.978 424.922 412.78C424.922 405.583 422.063 398.68 416.973 393.59C411.884 388.5 404.981 385.641 397.783 385.641C390.585 385.641 383.682 388.5 378.592 393.59C373.503 398.68 370.643 405.583 370.643 412.78C370.643 419.978 373.503 426.881 378.592 431.971C383.682 437.061 390.585 439.92 397.783 439.92ZM397.783 360.638C404.981 360.638 411.884 357.779 416.973 352.689C422.063 347.6 424.922 340.696 424.922 333.499C424.922 326.301 422.063 319.398 416.973 314.308C411.884 309.218 404.981 306.359 397.783 306.359C390.585 306.359 383.682 309.218 378.592 314.308C373.503 319.398 370.643 326.301 370.643 333.499C370.643 340.696 373.503 347.6 378.592 352.689C383.682 357.779 390.585 360.638 397.783 360.638Z" fill="white"/>
<path fill-rule="evenodd" clip-rule="evenodd" d="M182.76 439.921C189.958 439.921 196.861 437.061 201.95 431.972C207.04 426.882 209.899 419.979 209.899 412.781C209.899 405.583 207.04 398.68 201.95 393.591C196.861 388.501 189.958 385.642 182.76 385.642C175.562 385.642 168.659 388.501 163.569 393.591C158.48 398.68 155.62 405.583 155.62 412.781C155.62 419.979 158.48 426.882 163.569 431.972C168.659 437.061 175.562 439.921 182.76 439.921ZM182.76 215.978C189.958 215.978 196.861 213.119 201.95 208.029C207.04 202.939 209.899 196.036 209.899 188.839C209.899 181.641 207.04 174.738 201.95 169.648C196.861 164.558 189.958 161.699 182.76 161.699C175.562 161.699 168.659 164.558 163.569 169.648C158.48 174.738 155.62 181.641 155.62 188.839C155.62 196.036 158.48 202.939 163.569 208.029C168.659 213.119 175.562 215.978 182.76 215.978ZM182.76 136.336C189.961 136.336 196.868 133.475 201.96 128.383C207.052 123.29 209.913 116.384 209.913 109.182C209.913 101.981 207.052 95.0741 201.96 89.9819C196.868 84.8896 189.961 82.0288 182.76 82.0288C175.558 82.0288 168.652 84.8896 163.559 89.9819C158.467 95.0741 155.606 101.981 155.606 109.182C155.606 116.384 158.467 123.29 163.559 128.383C168.652 133.475 175.558 136.336 182.76 136.336ZM183.121 360.639C176.102 360.644 169.354 357.93 164.293 353.066C159.233 348.202 156.254 341.567 155.981 334.554V266.705C155.981 259.603 158.802 252.792 163.824 247.77C168.846 242.748 175.658 239.926 182.76 239.926C189.862 239.926 196.673 242.748 201.695 247.77C206.717 252.792 209.539 259.603 209.539 266.705V334.554C209.353 341.471 206.5 348.048 201.576 352.91C196.652 357.772 190.039 360.541 183.121 360.639Z" fill="white"/>
</svg>
