<svg width="530" height="666" viewBox="0 0 530 666" fill="none" xmlns="http://www.w3.org/2000/svg">
<path fill-rule="evenodd" clip-rule="evenodd" d="M370.605 475.135C312.552 500.776 249.671 490.259 225.473 481.795C225.473 487.623 225.195 505.577 224.141 531.191C223.086 556.832 214.928 573.01 210.96 577.922C211.404 593.933 211.764 628.898 209.655 640.637C207.633 650.132 203.067 658.899 196.446 666H160.815C163.979 649.988 176.217 639.748 181.933 636.64C185.097 603.535 178.881 574.786 175.329 564.574C171.832 577.033 163.202 605.921 156.875 621.961C151.693 634.7 145.054 646.796 137.089 658.008H110.699C109.367 641.968 118.191 636.64 123.88 636.64C126.516 631.729 132.843 616.355 137.089 593.906C141.307 571.511 135.313 529.414 131.817 511.183V453.796C89.581 431.096 73.7635 408.397 63.1908 383.033C54.7548 362.776 57.0303 331.89 59.2503 318.986C56.5863 314.102 48.8995 301.642 46.0413 284.299C42.1008 260.267 44.293 242.923 46.0413 233.572C43.405 230.908 38.1325 217.283 38.1325 184.177C38.1325 151.099 47.8173 133.921 52.6458 129.454V114.774C34.1643 113.442 15.7105 105.45 5.13777 94.7662C-5.40723 84.0825 2.50152 68.0707 9.10602 62.7427C15.7105 57.387 22.2873 61.383 31.528 58.719C40.7688 56.055 48.6775 53.391 52.618 45.399C55.837 38.9333 49.5933 12.432 46.069 0C61.8865 2.13675 72.0153 16.0118 75.0955 22.6995V0C94.8813 9.35175 130.512 32.0235 142.389 81.4185C151.88 120.935 158.651 203.768 160.843 240.232C211.431 240.676 275.645 233.017 333.698 245.588C386.451 257.021 410.205 280.275 437.899 280.275C465.621 280.275 481.467 264.263 501.225 277.611C521.038 290.959 531.583 328.338 528.947 356.366C526.838 378.788 509.605 386.169 501.252 387.057C490.707 422.299 501.252 456.016 507.829 468.475V519.175C510.909 523.615 517.07 537.351 517.07 556.554C517.07 575.785 510.909 588.577 507.829 592.601C513.102 622.488 505.609 653.096 501.225 664.668H465.621C469.839 653.984 477.054 651.32 480.135 651.32C486.462 618.215 481.883 587.689 478.803 576.589C458.767 564.823 445.836 544.122 441.867 535.214C442.311 542.762 441.063 563.769 432.627 587.246C424.191 610.75 411.537 624.625 406.264 628.621V656.648H370.633C370.633 639.582 380.29 636.196 385.146 636.64C391.307 625.54 406.236 608.613 406.236 575.257C406.236 547.091 386.451 533.855 371.937 508.519C365.055 496.475 368.413 481.379 370.633 475.135H370.605Z" fill="white"/>
</svg>
