<svg width="800" height="800" viewBox="0 0 800 800" fill="none" xmlns="http://www.w3.org/2000/svg">
<path d="M370.1 675.619C472.881 657.462 557.773 642.438 558.748 642.231L560.521 641.855L463.485 526.434C410.115 462.953 366.449 410.767 366.449 410.466C366.449 409.897 466.647 133.974 467.21 132.992C467.398 132.664 535.586 250.388 632.501 418.363C723.235 575.624 798.04 705.286 798.736 706.501L800 708.71L491.612 708.671L183.225 708.631L370.1 675.619ZM0 640.421C0 640.259 45.7228 560.887 101.606 464.041L203.212 287.956L321.623 188.585C386.748 133.932 440.208 89.1485 440.423 89.0646C440.637 88.9852 439.78 91.1414 438.519 93.8585C437.257 96.5756 379.398 220.678 309.942 369.642L183.659 640.486L91.8293 640.601C41.3232 640.665 0 640.583 0 640.421Z" fill="white"/>
</svg>
