<svg width="790" height="800" viewBox="0 0 790 800" fill="none" xmlns="http://www.w3.org/2000/svg">
<path d="M737.295 327.369C746.24 300.432 749.334 271.896 746.369 243.667C743.405 215.438 734.451 188.167 720.105 163.676C698.837 126.657 666.363 97.3477 627.364 79.9744C588.366 62.6012 544.857 58.0612 503.112 67.0092C479.395 40.6279 449.155 20.9516 415.427 9.95625C381.7 -1.03906 345.673 -2.96617 310.965 4.36847C276.257 11.7031 244.089 28.0412 217.694 51.742C191.299 75.4427 171.604 105.672 160.589 139.393C132.777 145.095 106.504 156.669 83.5237 173.339C60.5436 190.009 41.3862 211.392 27.3319 236.059C5.83308 273.017 -3.35539 315.854 1.09494 358.377C5.54527 400.901 23.4038 440.907 52.0886 472.612C43.1107 499.537 39.986 528.068 42.9236 556.297C45.8611 584.527 54.793 611.803 69.1219 636.302C90.4166 673.335 122.919 702.651 161.946 720.024C200.972 737.397 244.507 741.931 286.275 732.972C305.117 754.191 328.269 771.145 354.186 782.704C380.102 794.262 408.186 800.159 436.562 799.999C479.35 800.039 521.043 786.48 555.624 761.282C590.205 736.084 615.884 700.548 628.955 659.806C656.763 654.093 683.033 642.515 706.012 625.846C728.99 609.176 748.15 587.797 762.212 563.136C783.457 526.233 792.487 483.556 788.012 441.211C783.536 398.865 765.785 359.016 737.295 327.369ZM436.562 747.639C401.519 747.695 367.575 735.412 340.682 712.946L345.412 710.266L504.689 618.326C508.653 616.001 511.944 612.685 514.239 608.703C516.534 604.722 517.754 600.211 517.779 595.616V371.053L585.112 410.006C585.445 410.174 585.733 410.419 585.953 410.721C586.173 411.022 586.319 411.371 586.379 411.739V597.826C586.294 637.533 570.483 675.59 542.405 703.668C514.327 731.745 476.269 747.555 436.562 747.639ZM114.539 610.126C96.9643 579.78 90.6543 544.208 96.7186 509.669L101.452 512.509L260.885 604.449C264.83 606.764 269.321 607.984 273.895 607.984C278.469 607.984 282.96 606.764 286.905 604.449L481.665 492.166V569.913C481.647 570.315 481.538 570.709 481.346 571.064C481.155 571.419 480.885 571.726 480.559 571.962L319.232 665.006C284.803 684.839 243.91 690.2 205.532 679.911C167.154 669.621 134.428 644.523 114.539 610.126ZM72.5919 263.186C90.288 232.645 118.22 209.35 151.442 197.426V386.666C151.382 391.238 152.55 395.742 154.824 399.708C157.099 403.675 160.396 406.958 164.372 409.216L358.185 521.026L290.849 559.976C290.484 560.169 290.078 560.27 289.665 560.27C289.253 560.27 288.846 560.169 288.482 559.976L127.472 467.092C93.1073 447.173 68.0369 414.447 57.7508 376.082C47.4647 337.716 52.8013 296.838 72.5919 262.399V263.186ZM625.802 391.712L431.359 278.799L498.539 239.999C498.903 239.806 499.309 239.705 499.722 239.705C500.135 239.705 500.541 239.806 500.905 239.999L661.915 333.042C686.534 347.248 706.603 368.163 719.781 393.346C732.958 418.529 738.7 446.942 736.335 475.266C733.971 503.59 723.598 530.657 706.428 553.307C689.257 575.957 665.998 593.256 639.365 603.183V413.942C639.226 409.378 637.902 404.929 635.523 401.031C633.145 397.133 629.797 393.924 625.802 391.712ZM692.825 290.942L688.092 288.102L528.975 195.376C525.006 193.047 520.487 191.819 515.885 191.819C511.283 191.819 506.764 193.047 502.795 195.376L308.199 307.656V229.913C308.157 229.517 308.223 229.118 308.39 228.757C308.556 228.396 308.817 228.087 309.145 227.863L470.155 134.976C494.832 120.76 523.047 113.864 551.499 115.094C579.952 116.325 607.466 125.632 630.823 141.925C654.181 158.219 672.416 180.826 683.396 207.104C694.377 233.381 697.648 262.241 692.829 290.309L692.825 290.942ZM271.449 428.766L204.115 389.972C203.778 389.77 203.49 389.495 203.271 389.169C203.052 388.842 202.908 388.471 202.849 388.082V202.473C202.886 173.998 211.028 146.123 226.324 122.106C241.619 98.0886 263.436 78.9221 289.223 66.8471C315.01 54.7722 343.702 50.2879 371.944 53.9185C400.186 57.5491 426.811 69.1446 448.705 87.3492L443.972 90.0325L284.699 181.966C280.734 184.291 277.443 187.607 275.148 191.589C272.853 195.57 271.633 200.08 271.609 204.676L271.449 428.766ZM308.035 349.919L394.769 299.926L481.665 349.919V449.899L395.085 499.889L308.195 449.899L308.035 349.919Z" fill="white"/>
</svg>
