<svg width="582" height="653" viewBox="0 0 582 653" fill="none" xmlns="http://www.w3.org/2000/svg">
<path d="M246.565 577.492C267.174 577.492 283.881 594.199 283.881 614.808C283.881 635.418 267.174 652.125 246.565 652.125C225.955 652.125 209.249 635.418 209.249 614.808C209.249 594.199 225.955 577.492 246.565 577.492ZM453.597 509.406L490.473 520.332L461.201 619.127C458.643 627.76 450.438 633.462 441.456 632.85L432.414 632.23L432.193 632.412L338.25 625.819L340.864 587.447L403.98 591.731L362.66 532.124L394.268 510.209L435.642 569.89L453.597 509.406ZM52.2314 441.109L90.5965 443.827L86.1031 506.933L145.601 465.56L167.565 497.132L107.989 538.549L168.799 556.467L157.929 593.36L58.668 564.117C50.0024 561.564 44.2817 553.322 44.9207 544.311L52.2314 441.109ZM299.942 387.371L369.185 470.969L337.978 496.817L296.769 447.066L283.41 523.559L243.493 516.581L256.866 439.969L201.389 472.679L180.821 437.765L274.055 382.839C282.626 377.789 293.597 379.709 299.942 387.371ZM493.668 331.284L528.257 312.466L578.646 405.08C583.06 413.193 581.241 423.284 574.272 429.345L567.143 435.505L494.399 498.813L468.558 469.101L517.464 426.554L444.618 413.43L451.606 374.678L524.4 387.794L493.668 331.284ZM85.7541 234.458L111.81 263.981L63.5756 306.522L136.56 319.264L129.795 358.056L56.7304 345.304L88.1143 402.041L53.6578 421.101L2.46125 328.554C-2.00872 320.474 -0.262276 310.372 6.66128 304.261L85.7541 234.458ZM332.456 203.999L401.464 287.372L370.248 313.209L329.049 263.436L315.689 339.952L275.773 332.974L289.1 256.66L233.836 289.056L213.346 254.096L298.234 204.325L298.318 204.002L298.692 204.051L306.603 199.438C315.174 194.415 326.122 196.347 332.456 203.999ZM421.381 162.997L436.474 126.627L534.1 167.14C542.62 170.676 547.544 179.655 545.943 188.74L544.318 197.778L527.647 292.608L488.867 285.776L500.042 222.297L435.273 258.093L416.239 223.622L481.132 187.796L421.381 162.997ZM235.406 91.3266L237.084 130.668L172.595 133.424L221.234 189.008L191.6 214.938L142.879 159.27L131.528 222.824L92.7658 215.891L111.342 112.033C112.966 102.956 120.671 96.2217 129.884 95.8284L139.01 95.4205L139.215 95.272L235.406 91.3266ZM367.323 7.42631L436.019 91.3252L404.666 116.997L363.894 67.1925L350.142 143.607L310.261 136.43L324.036 59.8438L268.369 92.3909L247.924 57.4043L341.425 2.76875C350.028 -2.25862 361.01 -0.28362 367.323 7.42631Z" fill="white"/>
</svg>
