<svg width="1280" height="992" viewBox="0 0 1280 992" fill="none" xmlns="http://www.w3.org/2000/svg">
<path d="M1028.75 52.2907C1027.53 51.4784 1029.66 47.0108 1041.84 25.6884C1049.86 11.575 1056.55 0.101535 1056.76 0C1056.86 0 1104.15 27.2115 1161.79 60.4135C1249.17 110.877 1267.34 121.741 1271.4 125.904C1275.05 129.864 1276.67 132.504 1278.2 137.783C1280.23 144.688 1280.23 146.414 1279.72 856.45L1276.98 862.339C1275.35 865.487 1272.41 869.751 1270.38 871.782C1268.15 873.813 1222.58 900.821 1165.55 933.719C1110.04 965.804 1064.17 992 1063.56 992C1063.05 991.898 1056.15 980.831 1048.33 967.225C1040.52 953.62 1034.23 942.045 1034.33 941.537C1034.33 941.131 1076.14 916.458 1219.84 833.097L1220.35 162.964L1125.26 108.135C1072.99 77.9791 1029.56 52.8999 1028.75 52.2907Z" fill="white"/>
<path d="M8.32172 125.701C9.84398 124.178 57.0342 96.2555 113.155 63.5611C169.276 30.8667 215.553 4.06141 216.162 4.06141C216.669 4.06141 223.266 15.1288 230.775 28.7345C238.285 42.2387 244.476 53.9152 244.476 54.5245C244.577 55.2352 203.07 80.0098 59.8758 163.167V833.808L150.197 886.099C199.924 914.833 240.619 938.389 240.822 938.491C240.924 938.592 234.429 950.066 226.412 964.078C217.278 979.816 211.189 989.36 210.377 989.157C209.667 988.954 165.014 963.367 111.328 932.297C57.5416 901.227 11.6707 874.117 9.43805 872.188C7.20539 870.259 4.16086 866.096 0 857.466V139.611L2.74008 134.027C4.26234 130.981 6.79945 127.224 8.32172 125.701Z" fill="white"/>
<path d="M236.966 491.939L337.131 433.962C392.237 402.08 437.702 376.188 438.21 376.391C438.717 376.696 439.123 424.316 439.021 492.04C438.92 555.398 439.123 607.181 439.427 607.181C439.732 607.181 484.791 581.29 539.694 549.712C595.409 517.526 640.062 492.446 640.874 492.751C641.686 493.055 686.948 519.049 840.291 607.689L841.306 375.782L1041.74 491.431L1041.23 725.064L999.114 749.432C975.975 762.835 930.815 788.828 840.798 840.712L741.648 783.446C687.049 751.97 641.686 725.876 640.874 725.47C639.961 725.165 601.092 746.995 538.882 782.939C465.001 825.482 438.007 840.611 436.89 840.002C436.078 839.494 390.715 813.298 236.966 724.454V491.939Z" fill="white"/>
</svg>
